<svg xmlns="http://www.w3.org/2000/svg" width="1200" height="630" viewBox="0 0 1200 630" role="img" aria-labelledby="title desc">
  <title id="title">PLOTAO.cz – kalkulátor ceny plotu</title>
  <desc id="desc">Sociální náhled PLOTAO.cz s motivem moderního oplocení a kalkulátoru ceny plotu.</desc>
  <defs>
    <linearGradient id="bg" x1="0" y1="0" x2="1" y2="1">
      <stop offset="0" stop-color="#163d2d"/>
      <stop offset="1" stop-color="#0b6d43"/>
    </linearGradient>
    <linearGradient id="panel" x1="0" y1="0" x2="0" y2="1">
      <stop offset="0" stop-color="#f7faf8"/>
      <stop offset="1" stop-color="#dce8e0"/>
    </linearGradient>
  </defs>
  <rect width="1200" height="630" rx="0" fill="url(#bg)"/>
  <circle cx="1060" cy="100" r="240" fill="#ffffff" opacity=".035"/>
  <circle cx="1040" cy="560" r="300" fill="#f07828" opacity=".08"/>
  <g transform="translate(72 68)">
    <text x="0" y="74" font-family="Arial,Helvetica,sans-serif" font-size="72" font-weight="800" letter-spacing="-3" fill="#ffffff">PLOTAO</text>
    <circle cx="286" cy="55" r="10" fill="#f07828"/>
    <text x="307" y="74" font-family="Arial,Helvetica,sans-serif" font-size="34" font-weight="700" fill="#d7e8de">CZ</text>
    <text x="0" y="150" font-family="Arial,Helvetica,sans-serif" font-size="24" font-weight="700" fill="#a9ccb9">KALKULÁTOR CENY PLOTU</text>
    <text x="0" y="216" font-family="Arial,Helvetica,sans-serif" font-size="44" font-weight="800" fill="#ffffff">Spočítejte materiál, délku</text>
    <text x="0" y="268" font-family="Arial,Helvetica,sans-serif" font-size="44" font-weight="800" fill="#ffffff">a cenu oplocení přehledně.</text>
    <rect x="0" y="318" width="310" height="62" rx="31" fill="#f07828"/>
    <text x="155" y="358" text-anchor="middle" font-family="Arial,Helvetica,sans-serif" font-size="22" font-weight="800" fill="#ffffff">plotao.cz</text>
  </g>
  <g transform="translate(690 168)">
    <rect x="0" y="0" width="410" height="330" rx="28" fill="#ffffff" opacity=".98"/>
    <rect x="32" y="30" width="346" height="46" rx="12" fill="#edf5f0"/>
    <rect x="50" y="45" width="112" height="14" rx="7" fill="#0b6d43" opacity=".85"/>
    <g transform="translate(38 110)">
      <rect x="0" y="0" width="334" height="132" rx="16" fill="url(#panel)"/>
      <g stroke="#315e49" stroke-width="7">
        <line x1="12" y1="22" x2="322" y2="22"/>
        <line x1="12" y1="55" x2="322" y2="55"/>
        <line x1="12" y1="88" x2="322" y2="88"/>
        <line x1="12" y1="121" x2="322" y2="121"/>
      </g>
      <g stroke="#173d2d" stroke-width="10">
        <line x1="12" y1="8" x2="12" y2="132"/>
        <line x1="167" y1="8" x2="167" y2="132"/>
        <line x1="322" y1="8" x2="322" y2="132"/>
      </g>
    </g>
    <rect x="38" y="268" width="210" height="20" rx="10" fill="#dfe9e3"/>
    <rect x="270" y="258" width="102" height="42" rx="21" fill="#f07828"/>
  </g>
</svg>
